<?xml version="1.0" encoding="UTF-8"?>
<svg version="1.1" xmlns="http://www.w3.org/2000/svg" width="836" height="836">
<path d="M0 0 C1.59652908 -0.00101212 1.59652908 -0.00101212 3.22531128 -0.00204468 C21.04614038 0.01583346 38.45243515 0.80277236 56.125 3.25 C57.39504883 3.42160645 58.66509766 3.59321289 59.97363281 3.77001953 C78.69599367 6.3660941 96.89569182 10.2855386 115.125 15.25 C116.32455322 15.56638428 116.32455322 15.56638428 117.54833984 15.88916016 C173.92880409 30.77462665 226.71339886 60.82449342 271.125 98.25 C272.1459375 99.0853125 273.166875 99.920625 274.21875 100.78125 C283.10864788 108.16917235 291.31569856 116.22553334 299.5 124.375 C300.05785187 124.92767548 300.61570374 125.48035095 301.19046021 126.04977417 C307.59418602 132.40662765 313.65419334 138.8400433 319.2644043 145.91796875 C320.9680558 148.05328947 322.73247695 150.09792364 324.5625 152.125 C339.85742799 169.51512361 352.59650609 189.22940742 364.125 209.25 C364.7739624 210.36640869 364.7739624 210.36640869 365.43603516 211.50537109 C391.95082273 257.27215579 408.51464995 308.00655475 416.125 360.25 C416.29016113 361.33651855 416.45532227 362.42303711 416.62548828 363.54248047 C421.95548857 400.05876991 421.64956526 439.78025667 416.125 476.25 C415.95871094 477.40677246 415.79242187 478.56354492 415.62109375 479.75537109 C409.65743308 520.46839895 397.82035405 560.09295637 380.125 597.25 C379.46250244 598.65330566 379.46250244 598.65330566 378.78662109 600.08496094 C369.99335256 618.58324984 359.85671069 636.44930488 348.125 653.25 C347.22643747 654.56111224 346.32801025 655.87231721 345.4296875 657.18359375 C333.15768616 674.96393445 319.4339595 692.45967248 303.875 707.5 C302.0565887 709.3184113 300.40801828 711.2224413 298.75 713.1875 C295.41409006 717.056855 291.74757855 720.40318623 287.9140625 723.7734375 C285.94056554 725.52581435 284.00358086 727.29052218 282.0859375 729.1015625 C274.97278614 735.81212393 267.61112304 742.00065725 259.83935547 747.93408203 C258.17462291 749.21191007 256.52497832 750.50685053 254.87890625 751.80859375 C221.11420232 778.39590993 181.55286062 799.21338818 141.01953125 813.24511719 C138.52435522 814.11135745 136.04224044 815.00489908 133.5625 815.9140625 C109.666122 824.50051016 84.19336973 829.64635638 59.125 833.25 C57.50392334 833.49556641 57.50392334 833.49556641 55.85009766 833.74609375 C19.33631022 839.07802108 -20.40812588 838.79331099 -56.875 833.25 C-58.05304199 833.07839355 -59.23108398 832.90678711 -60.44482422 832.72998047 C-98.35686161 827.09529195 -136.09506966 816.51203916 -170.875 800.25 C-171.8330957 799.81252441 -172.79119141 799.37504883 -173.77832031 798.92431641 C-207.7649043 783.38898083 -239.29416601 763.32230806 -267.875 739.25 C-268.87273437 738.43789063 -269.87046875 737.62578125 -270.8984375 736.7890625 C-280.1891118 729.09763624 -288.71214754 720.62928856 -297.25 712.125 C-298.15853226 711.22423233 -298.15853226 711.22423233 -299.0854187 710.30526733 C-306.49949173 702.94113932 -313.3955336 695.45929443 -319.875 687.25 C-320.73794409 686.22207693 -321.60634932 685.19866481 -322.484375 684.18359375 C-337.49037199 666.685725 -350.33758888 647.17780924 -361.875 627.25 C-362.26655273 626.57662598 -362.65810547 625.90325195 -363.06152344 625.20947266 C-379.18406814 597.3230567 -392.13005748 567.28212788 -400.875 536.25 C-401.11379883 535.41791016 -401.35259766 534.58582031 -401.59863281 533.72851562 C-408.69826058 508.73708922 -413.43436783 483.10950541 -415.875 457.25 C-416.01639404 455.9036145 -416.01639404 455.9036145 -416.16064453 454.5300293 C-417.25022523 442.82434616 -417.11886606 431.05827491 -417.125 419.3125 C-417.12567474 418.15216248 -417.12634949 416.99182495 -417.12704468 415.79632568 C-417.1103864 397.74217699 -416.49500323 380.13616375 -413.875 362.25 C-413.70871094 361.05503906 -413.54242188 359.86007812 -413.37109375 358.62890625 C-407.05818962 314.06447934 -393.89222231 270.10991286 -372.89941406 230.20898438 C-371.78654453 228.08084684 -370.70144299 225.93972312 -369.6171875 223.796875 C-357.07329895 199.21607686 -341.75173775 176.1353879 -324.19189453 154.85498047 C-322.98638306 153.3857494 -321.80257406 151.89878049 -320.62109375 150.41015625 C-306.57935553 132.79979948 -290.25079083 114.98399907 -272.39453125 101.234375 C-270.20701009 99.51149012 -268.12814885 97.73009864 -266.04296875 95.88671875 C-227.01859723 61.55109295 -177.95742596 36.45289904 -128.875 20.25 C-127.77849121 19.88777344 -126.68198242 19.52554687 -125.55224609 19.15234375 C-96.36032149 9.67098157 -66.36801096 4.30103464 -35.875 1.25 C-34.88564453 1.146875 -33.89628906 1.04375 -32.87695312 0.9375 C-21.94548289 -0.06211191 -10.96794009 0.00626369 0 0 Z " fill="#FCBD01" transform="translate(416.875,-0.24999999999999997)"/>
<path d="M0 0 C-1.46472463 8.97335321 -3.58120881 17.75575394 -5.8125 26.5625 C-6.17509618 28.00421986 -6.53764459 29.44595174 -6.90014648 30.88769531 C-8.87334073 38.70775382 -10.91911382 46.50129662 -13.13598633 54.25610352 C-15.08253481 61.13099199 -16.78430831 68.06448791 -18.5 75 C-20.81920423 84.37100732 -23.23396792 93.69811406 -25.87109375 102.984375 C-27.40348086 108.38408936 -28.79994033 113.81944102 -30.203125 119.25390625 C-31 122 -31 122 -32 123 C-34.09174627 123.39863197 -36.18488256 123.79088312 -38.28320312 124.15332031 C-85.31078244 132.31806539 -129.31204011 152.47253712 -166 183 C-166.50966309 183.41942871 -167.01932617 183.83885742 -167.54443359 184.27099609 C-180.92344668 195.31292575 -193.39562031 207.23417832 -204 221 C-205.00319572 222.26358527 -206.00715842 223.52656184 -207.01171875 224.7890625 C-229.317702 253.07696811 -246.81396144 286.05571185 -256 321 C-256.24202148 321.91765137 -256.48404297 322.83530273 -256.73339844 323.78076172 C-262.94588834 347.83592194 -265.25741185 371.05153994 -265.375 395.8125 C-265.3830365 396.75541901 -265.391073 397.69833801 -265.39935303 398.66983032 C-265.48309214 411.62303061 -264.4858646 424.06543398 -262.3581543 436.8432312 C-261.91215709 439.52898105 -261.51561331 442.22147509 -261.11328125 444.9140625 C-258.07121247 463.40908253 -253.46761669 482.43178475 -244.99487305 499.24560547 C-243.71838039 501.84445723 -242.99393272 503.7261635 -243.05859375 506.64453125 C-244.24604837 509.61563139 -245.78216247 511.14041165 -248.125 513.3125 C-250.95640356 516.01540481 -253.67153303 518.68893066 -256.1875 521.6875 C-259.59160082 525.6655944 -263.28127686 529.3199934 -267 533 C-272.3853894 538.31201023 -272.3853894 538.31201023 -277.4375 543.9375 C-281.50074465 548.74896362 -286.05826003 553.08176655 -290.52880859 557.50927734 C-294.2097669 561.16830887 -297.72158663 564.87731192 -301.06640625 568.84765625 C-304.50266873 572.67266761 -308.21329148 576.2319809 -311.8671875 579.84765625 C-315.60872889 583.56505866 -319.19023276 587.3528445 -322.6015625 591.37890625 C-324.61638374 593.71452305 -326.78641059 595.85348906 -329 598 C-332.77623318 596.74125561 -333.01208707 595.69006776 -334.85546875 592.25 C-335.6592395 590.76222046 -335.6592395 590.76222046 -336.47924805 589.24438477 C-337.32483276 587.63841431 -337.32483276 587.63841431 -338.1875 586 C-338.77120361 584.90292725 -339.35490723 583.80585449 -339.95629883 582.67553711 C-352.78089911 558.40312907 -362.71533061 533.16528289 -371 507 C-371.33217529 505.9793042 -371.66435059 504.9586084 -372.0065918 503.90698242 C-374.5424776 495.95984256 -376.42791717 487.98924221 -378.0625 479.8125 C-378.32071533 478.53439453 -378.57893066 477.25628906 -378.8449707 475.93945312 C-379.5745404 472.29506451 -380.29097933 468.64843595 -381 465 C-381.16918945 464.13681152 -381.33837891 463.27362305 -381.51269531 462.38427734 C-382.49620994 457.27466355 -383.28977966 452.15419965 -384 447 C-384.13535156 446.0713916 -384.27070313 445.1427832 -384.41015625 444.18603516 C-386.78106175 427.3841114 -387.29339325 410.75720075 -387.3125 393.8125 C-387.31599457 392.81497711 -387.31948914 391.81745422 -387.3230896 390.78970337 C-387.34788509 378.03812798 -386.63658116 365.6410437 -385 353 C-384.77966083 350.91997967 -384.56533904 348.83930541 -384.359375 346.7578125 C-376.52906591 272.53785303 -344.70668459 198.00596686 -295.49023438 141.76123047 C-294.36639056 140.43301793 -293.27388568 139.07819669 -292.19726562 137.71142578 C-286.00579193 129.89403987 -279.17559062 122.86939711 -272.10791016 115.84716797 C-270.12818576 113.8781685 -268.15939246 111.89869273 -266.19140625 109.91796875 C-259.0978887 102.81666224 -251.90166232 96.2011611 -244 90 C-242.69362562 88.91661183 -241.39114007 87.82850616 -240.09375 86.734375 C-221.24253563 71.0138456 -200.43197863 57.84437086 -178.93066406 46.06152344 C-177.08025096 45.04412382 -175.2390888 44.01148712 -173.3984375 42.9765625 C-136.25430342 22.34149704 -92.96492026 9.01474145 -51 3 C-49.59427734 2.79697266 -49.59427734 2.79697266 -48.16015625 2.58984375 C-32.04592425 0.33425768 -16.26128909 -0.41127774 0 0 Z " fill="#000000" transform="translate(409,23)"/>
<path d="M0 0 C18.52556181 0.33212428 36.65749427 1.19145915 55 4 C56.46179688 4.21462891 56.46179688 4.21462891 57.953125 4.43359375 C98.53349216 10.43566376 138.52183807 22.80229964 174.90527344 41.90771484 C177.25250301 43.13166649 179.61391104 44.32563345 181.9765625 45.51953125 C209.1227044 59.34089008 233.88501604 76.88377111 256.9375 96.75 C257.54037842 97.26884766 258.14325684 97.78769531 258.7644043 98.32226562 C262.44723367 101.5333297 265.93957491 104.87879879 269.35083008 108.37719727 C271.07976414 110.07848886 272.88694677 111.63520891 274.75 113.1875 C279.78601252 117.53457825 284.14288912 122.48652558 288.57666016 127.42822266 C289.95569094 128.95107003 291.35373683 130.45314412 292.76171875 131.94921875 C358.94144936 202.44732722 393.65478407 300.72048224 393.3125 396.625 C393.31034485 397.71972626 393.3081897 398.81445251 393.30596924 399.94235229 C393.2528339 416.81190095 392.69883269 433.31630701 390 450 C389.69400879 451.93552734 389.69400879 451.93552734 389.38183594 453.91015625 C382.3113044 498.01702355 368.8784242 540.39679995 348 580 C344.37874805 576.96997286 340.87118461 573.93217419 337.5625 570.5625 C335.27134861 568.2309759 332.93166345 566.04957884 330.4375 563.9375 C326.42258281 560.48607996 322.72134109 556.76059574 319 553 C314.83354774 548.78987424 310.64714573 544.72758768 306.12109375 540.90234375 C302.52262539 537.67498815 299.1747647 534.19375027 295.77709961 530.75756836 C292.93342314 527.89409544 290.08116073 525.11115316 287 522.5 C282.68132993 518.84011011 278.76927739 514.79523795 274.79272461 510.77319336 C271.80043474 507.75992643 268.78164407 504.83677195 265.5625 502.0625 C264.95664062 501.5365625 264.35078125 501.010625 263.7265625 500.46875 C262.55116749 499.46886646 261.35740848 498.49026496 260.1484375 497.53125 C258.4375 496.0625 258.4375 496.0625 256 493 C255.80562069 487.2658103 257.81867972 482.70652596 259.828125 477.40625 C263.77586067 465.93149832 266.14515855 453.92873897 268.25 442 C268.41306641 441.08186523 268.57613281 440.16373047 268.74414062 439.21777344 C275.12306889 401.44637482 273.29530424 357.68423326 262 321 C261.72704102 320.09088867 261.45408203 319.18177734 261.17285156 318.24511719 C249.71583673 280.53191588 231.30313418 245.47765037 205 216 C204.30132813 215.19175781 203.60265625 214.38351563 202.8828125 213.55078125 C192.58424837 201.79487313 181.46424219 190.45178468 169 181 C168.36352539 180.5035498 167.72705078 180.00709961 167.07128906 179.49560547 C142.50706844 160.36439919 114.88450966 145.326995 85.24560547 135.73339844 C83.11386107 135.0371862 80.99556258 134.31096245 78.87890625 133.5703125 C66.85571367 129.38490894 54.83976893 126.84846537 42.27050781 125.00146484 C36.19856771 124.09928385 36.19856771 124.09928385 34 123 C33.26708984 121.13671875 33.26708984 121.13671875 32.5859375 118.6875 C32.3290918 117.78 32.07224609 116.8725 31.80761719 115.9375 C31.54110352 114.968125 31.27458984 113.99875 31 113 C30.7309082 112.05125 30.46181641 111.1025 30.18457031 110.125 C29.32269555 107.08570424 28.47266514 104.04328777 27.625 101 C27.31755859 99.89914063 27.01011719 98.79828125 26.69335938 97.6640625 C24.75935101 90.73554819 22.8326698 83.80500274 20.91015625 76.87329102 C17.96033233 66.2432199 14.97696432 55.6224942 12 45 C10.21350479 38.62537371 8.42741088 32.25063858 6.64453125 25.875 C5.58383059 22.08207861 4.51856149 18.29049337 3.44921875 14.5 C2.98692946 12.85418063 2.52468679 11.20834816 2.0625 9.5625 C1.74514893 8.44403687 1.74514893 8.44403687 1.42138672 7.30297852 C0 2.22651097 0 2.22651097 0 0 Z " fill="#010000" transform="translate(420,22)"/>
<path d="M0 0 C4.39026431 0.6698011 8.72697723 1.5633054 13.06420898 2.51245117 C13.88422897 2.68897217 14.70424896 2.86549316 15.54911804 3.04736328 C18.22804978 3.62487674 20.90589343 4.20727341 23.58374023 4.78979492 C25.46990641 5.19756312 27.35613787 5.60502948 29.24243164 6.01220703 C33.09830069 6.84508703 36.95373738 7.67992753 40.80883789 8.51635742 C45.91359128 9.62354704 51.01986231 10.72355725 56.12670898 11.82104492 C71.12709905 15.04708153 86.119121 18.31025188 101.09942627 21.62838745 C102.70100774 21.98312166 104.30269076 22.33739768 105.90447998 22.69119263 C108.11305503 23.17937909 110.32113072 23.66975831 112.52905273 24.16088867 C113.7860498 24.43989014 115.04304687 24.7188916 116.33813477 25.00634766 C119.39624023 25.72729492 119.39624023 25.72729492 122.39624023 26.72729492 C120.880619 32.29343607 118.17077397 36.67573457 115.08374023 41.47729492 C114.55321045 42.307854 114.02268066 43.13841309 113.47607422 43.99414062 C101.80772774 62.07212547 88.75565794 79.18747668 74.02905273 94.88354492 C71.99243432 97.08333455 70.01900338 99.30737425 68.06030273 101.57495117 C64.40927505 105.76379609 60.57675642 109.73858798 56.64624023 113.66479492 C55.94813232 114.36282227 55.25002441 115.06084961 54.53076172 115.7800293 C49.82873136 120.43068612 45.01588232 124.71784206 39.81420898 128.80541992 C37.53848035 130.61423816 35.40776896 132.50761891 33.27124023 134.47729492 C-2.32816349 166.30291027 -46.90039576 189.10871617 -91.69848633 204.70605469 C-94.63030929 205.73662741 -97.54934132 206.79808026 -100.46704102 207.86791992 C-113.85689012 212.74772816 -127.53865058 215.45131237 -141.50415039 218.12475586 C-144.30838398 218.66987625 -147.10484587 219.2422315 -149.90063477 219.82885742 C-243.25080632 239.17209445 -347.22949437 218.33559322 -433.19702148 164.13476562 C-452.66756514 151.25492625 -471.1081702 137.18004461 -488.08325195 121.14624023 C-490.51041105 118.88120351 -493.00300926 116.68896537 -495.47875977 114.47729492 C-515.42783977 96.35898492 -541.81111191 70.29817896 -551.60375977 44.72729492 C-550.95640869 44.54666504 -550.30905762 44.36603516 -549.64208984 44.17993164 C-546.56662998 43.32137367 -543.49140246 42.46198826 -540.41625977 41.60229492 C-539.27729248 41.28389648 -538.1383252 40.96549805 -536.96484375 40.63745117 C-530.02409964 38.69406218 -523.09198297 36.7234409 -516.16625977 34.72729492 C-508.37870225 32.48398101 -500.56103969 30.37107189 -492.72875977 28.28979492 C-484.40347789 26.07522104 -476.14331255 23.71994261 -467.91625977 21.16479492 C-460.02190169 18.71731023 -452.09896444 16.44836097 -444.10375977 14.35229492 C-443.15412354 14.1014917 -442.2044873 13.85068848 -441.22607422 13.59228516 C-438.69167901 12.93824034 -436.15312666 12.31999226 -433.60375977 11.72729492 C-432.91749512 11.55931396 -432.23123047 11.39133301 -431.52416992 11.21826172 C-429.67407227 10.84057617 -429.67407227 10.84057617 -426.60375977 10.72729492 C-424.56469727 12.16870117 -424.56469727 12.16870117 -422.97875977 14.28979492 C-422.39739258 15.03229492 -421.81602539 15.77479492 -421.21704102 16.53979492 C-420.6846582 17.26166992 -420.15227539 17.98354492 -419.60375977 18.72729492 C-416.31490281 22.85944854 -412.94131342 26.30326793 -408.93188477 29.70385742 C-407.28181515 31.13797833 -405.67042058 32.61715557 -404.08813477 34.12573242 C-390.71016348 46.86843691 -375.48214284 57.34698278 -359.60375977 66.72729492 C-358.96937988 67.10692383 -358.335 67.48655273 -357.68139648 67.87768555 C-296.38970742 104.37600812 -222.11178188 113.43120989 -153.12280273 96.89282227 C-141.61068465 93.96356767 -130.41659515 90.68035844 -119.60375977 85.72729492 C-118.01330707 85.05846789 -116.42062585 84.39492889 -114.82641602 83.73510742 C-85.63121104 71.60461098 -58.39099085 55.28035377 -35.42016602 33.39135742 C-33.1782824 31.27074074 -30.90935067 29.26401445 -28.54125977 27.28979492 C-25.01424899 24.23156406 -21.83780154 20.89580304 -18.66625977 17.47729492 C-18.15087646 16.92291748 -17.63549316 16.36854004 -17.10449219 15.79736328 C-14.62939277 13.09209488 -12.28258532 10.36637431 -10.11547852 7.40698242 C-8.99592773 5.89491211 -8.99592773 5.89491211 -7.85375977 4.35229492 C-7.21954102 3.43706055 -6.58532227 2.52182617 -5.93188477 1.57885742 C-3.60375977 -0.27270508 -3.60375977 -0.27270508 0 0 Z " fill="#020100" transform="translate(637.603759765625,587.272705078125)"/>
<path d="M0 0 C-1.54415583 9.66185293 -3.91524324 19.08641233 -6.3125 28.5625 C-6.72325663 30.19619996 -7.13398235 31.82990769 -7.54467773 33.46362305 C-9.63631874 41.7585673 -11.7711006 50.03473819 -14.11865234 58.26147461 C-16.17837864 65.51760608 -18.05581196 72.82113971 -19.9375 80.125 C-20.11013367 80.7948291 -20.28276733 81.4646582 -20.46063232 82.15478516 C-23.00080107 92.02162021 -25.4759074 101.90388986 -27.92602539 111.79345703 C-29.49514271 118.08805405 -31.18869207 124.3349263 -32.96557617 130.57348633 C-35.14756823 138.33883627 -37.06116802 146.17137326 -39 154 C-43.92004067 173.85275573 -43.92004067 173.85275573 -46.29711914 181.95214844 C-47.33172511 185.48112939 -48.21752987 188.97503508 -48.921875 192.5859375 C-51.41282874 204.4997352 -56.34311776 210.66735544 -65.43652344 218.59863281 C-67.30070262 220.26952421 -68.91040594 222.06803184 -70.5 224 C-74.35188776 228.55937735 -78.64812208 232.67246864 -82.88671875 236.8671875 C-85.86800977 239.82940843 -88.78563316 242.78707598 -91.5 246 C-94.78396954 249.88714761 -98.38613844 253.42354417 -102 257 C-107.38538279 262.3120156 -107.38538279 262.3120156 -112.4375 267.9375 C-116.50074465 272.74896362 -121.05826003 277.08176655 -125.52880859 281.50927734 C-129.2097669 285.16830887 -132.72158663 288.87731192 -136.06640625 292.84765625 C-139.50888068 296.67958233 -143.22666402 300.24501916 -146.88696289 303.86743164 C-149.86817318 306.82956982 -152.7857078 309.78716434 -155.5 313 C-159.34989093 317.55701375 -163.64364965 321.66812803 -167.88012695 325.8605957 C-171.48732611 329.44465634 -174.91926433 333.09569543 -178.203125 336.98046875 C-182.24736753 341.52584569 -186.66430154 345.73486445 -191 350 C-195.09366223 346.40256108 -196.09362463 341.73899853 -197.75 336.6875 C-198.09562988 335.63876709 -198.44125977 334.59003418 -198.79736328 333.50952148 C-201.53431077 324.95078315 -203.8056988 316.30280777 -205.875 307.5625 C-206.30377441 305.77235474 -206.30377441 305.77235474 -206.74121094 303.94604492 C-210.35168938 288.11390192 -211.33154727 272.7222876 -211.26074219 256.53515625 C-211.25003766 253.63520282 -211.260697 250.73587213 -211.2734375 247.8359375 C-211.30029014 213.38839007 -203.83124258 180.56558338 -190 149 C-189.65211426 148.20255371 -189.30422852 147.40510742 -188.94580078 146.58349609 C-177.83570732 121.42943094 -162.29497594 98.91843656 -143.59375 78.81640625 C-141.48126663 76.52258018 -139.44651594 74.1958373 -137.4375 71.8125 C-133.33271737 67.11030769 -128.73906239 63.05133566 -124 59 C-123.44731445 58.52433594 -122.89462891 58.04867187 -122.32519531 57.55859375 C-91.52996076 31.22521659 -55.70005426 12.95628475 -16.625 2.5625 C-15.6558667 2.30315674 -14.6867334 2.04381348 -13.68823242 1.77661133 C-9.02889439 0.58379127 -4.85325726 -0.33274841 0 0 Z " fill="#FF0000" transform="translate(372,165)"/>
<path d="M0 0 C10.95296968 0.2128669 20.60856256 2.78093595 31 6 C32.22251465 6.36738281 32.22251465 6.36738281 33.46972656 6.7421875 C98.05284987 26.26556252 152.68392977 72.11214028 184.55859375 131.34375 C194.69007247 150.52076093 202.45191419 170.08563284 207.8125 191.125 C208.0904541 192.2070874 208.3684082 193.2891748 208.65478516 194.40405273 C212.88006353 211.73849513 214.47832679 228.58232062 214.33618164 246.40014648 C214.3124944 249.56324743 214.31566398 252.72550379 214.32226562 255.88867188 C214.30044215 272.49819914 213.27607301 288.79581753 209.75 305.0625 C209.53964111 306.05765625 209.32928223 307.0528125 209.11254883 308.078125 C207.08542877 317.2927093 204.25104657 326.15179079 201 335 C195.76921499 330.58395768 190.72618507 326.01270163 185.75 321.3125 C185.00564697 320.61133057 184.26129395 319.91016113 183.49438477 319.18774414 C178.34230973 314.31666097 173.31553429 309.34405644 168.33203125 304.30078125 C166.32092864 302.31662809 164.2752399 300.45470725 162.125 298.625 C158.38456778 295.43870588 154.95196232 291.99120031 151.5 288.5 C148.08929941 285.05061837 144.7037849 281.63880077 141 278.5 C136.67581294 274.8354347 132.75917709 270.78479134 128.77734375 266.7578125 C125.93358423 263.89425883 123.08124916 261.1112281 120 258.5 C115.67581294 254.8354347 111.75917709 250.78479134 107.77734375 246.7578125 C104.93358423 243.89425883 102.08124916 241.1112281 99 238.5 C95.29621434 235.36119859 91.91070855 231.94937324 88.5 228.5 C85.10993882 225.07155172 81.74806018 221.6773928 78.0625 218.5625 C73.47010376 214.67511981 69.30489053 210.35563147 65.09790039 206.06079102 C64.52676514 205.48127686 63.95562988 204.9017627 63.3671875 204.3046875 C62.86300293 203.78890137 62.35881836 203.27311523 61.83935547 202.74169922 C59.89143115 200.81779065 59.89143115 200.81779065 56.96337891 198.8269043 C53.18178084 195.6891684 52.34628841 192.1126147 51.21875 187.46484375 C50.8895179 186.22456421 50.8895179 186.22456421 50.55363464 184.95922852 C49.84928409 182.29005141 49.1747925 179.6142855 48.5 176.9375 C48.01910064 175.09710418 47.5357774 173.25734005 47.05004883 171.41821289 C46.33447608 168.707334 45.62041365 165.99617605 44.91474915 163.28269958 C43.31221507 157.1217609 41.58565689 151.01446914 39.6875 144.9375 C37.33868262 137.3197586 35.30350452 129.64039478 33.3190918 121.92041016 C29.51210155 107.14933738 25.38850451 92.46481024 20.9375 77.875 C18.52030458 69.94360244 16.38344629 61.95904965 14.32226562 53.9284668 C12.44976393 46.65549997 10.47216186 39.41671524 8.4375 32.1875 C8.14488281 31.14754883 7.85226562 30.10759766 7.55078125 29.03613281 C6.70178787 26.02372918 5.85117897 23.01178673 5 20 C4.01741849 16.52178202 3.03837951 13.04260365 2.0625 9.5625 C1.85101318 8.81701904 1.63952637 8.07153809 1.42163086 7.3034668 C0 2.22707757 0 2.22707757 0 0 Z " fill="#FF0000" transform="translate(460,165)"/>
<path d="M0 0 C2.78244692 0.64569858 5.56969575 1.26951105 8.35667419 1.89530945 C9.86716371 2.23474287 11.37740272 2.57529272 12.8874054 2.91688538 C21.26763604 4.8100909 29.66898821 6.60242448 38.07165527 8.39291382 C42.55070185 9.34776145 47.02880224 10.3070269 51.50698853 11.26589966 C52.39225723 11.45538177 53.27752594 11.64486389 54.18962097 11.84008789 C63.102963 13.74821595 72.01495291 15.66255697 80.92495728 17.58621216 C81.68370148 17.75001373 82.44244568 17.91381531 83.22418213 18.08258057 C95.02130933 20.63169595 106.80312669 23.24592663 118.58126831 25.88116455 C139.70016465 30.60077154 160.87798166 35.04959261 182.04995728 39.52371216 C175.20218152 53.82040429 158.33711013 67.00377928 146.04995728 76.52371216 C145.05737915 77.32164185 144.06480103 78.11957153 143.04214478 78.94168091 C90.10990923 121.16731844 20.83210033 138.19187469 -45.88314819 131.07498169 C-66.79473374 128.51740934 -87.37648798 123.30480429 -106.95004272 115.52371216 C-107.77697632 115.20209106 -108.60390991 114.88046997 -109.4559021 114.54910278 C-145.31645927 100.47172385 -176.15092927 77.94606081 -202.95004272 50.52371216 C-200.81594912 48.38961855 -199.89999181 48.05004296 -197.07504272 47.26199341 C-196.26825073 47.03390991 -195.46145874 46.80582642 -194.63021851 46.5708313 C-193.7457605 46.32840698 -192.86130249 46.08598267 -191.95004272 45.83621216 C-191.02304565 45.5763855 -190.09604858 45.31655884 -189.14096069 45.04885864 C-180.69848302 42.695338 -172.22500553 40.45655602 -163.75546265 38.20291138 C-155.58412226 36.01017516 -147.50144156 33.5896403 -139.42318726 31.0786438 C-132.80794526 29.04085693 -126.15801143 27.22954206 -119.45004272 25.52371216 C-111.7600188 23.56682042 -104.15547252 21.43242753 -96.57504272 19.08621216 C-78.80211546 13.58733902 -60.85408147 8.72781701 -42.87484741 3.95315552 C-36.41965524 2.22857269 -30.05745505 0.38949454 -23.75863647 -1.84738159 C-15.56132352 -3.68294124 -8.02351443 -1.86267679 0 0 Z " fill="#FF0000" transform="translate(431.9500427246094,542.4762878417969)"/>
<path d="M0 0 C9.25513738 4.62756869 18.43719375 9.22324642 27.5 14.1875 C29.57026648 15.31518866 31.64058036 16.44279029 33.7109375 17.5703125 C34.75088867 18.13782227 35.79083984 18.70533203 36.86230469 19.29003906 C41.94355856 22.059188 47.03495303 24.80955922 52.125 27.5625 C59.71674964 31.67219006 67.29948599 35.79796872 74.875 39.9375 C84.00547157 44.92610125 93.16344967 49.86247951 102.32763672 54.78881836 C110.12538628 58.98329863 117.90309717 63.21309699 125.671875 67.4609375 C132.76589714 71.33599583 139.88013778 75.17265623 147 79 C155.90817176 83.7886651 164.79808738 88.60889573 173.671875 93.4609375 C180.76589714 97.33599583 187.88013778 101.17265623 195 105 C203.90817176 109.7886651 212.79808738 114.60889573 221.671875 119.4609375 C228.76589736 123.33599596 235.88015401 127.17262571 243 131 C251.94743148 135.81021383 260.87836532 140.6490603 269.79272461 145.52026367 C284.83127866 153.73618866 299.90329237 161.8914168 315 170 C311.57836726 171.14054425 310.28640489 170.82919978 306.81811523 170.06298828 C305.21739418 169.71550034 305.21739418 169.71550034 303.58433533 169.36099243 C302.42084061 169.10006805 301.25734589 168.83914368 300.05859375 168.5703125 C298.84591324 168.30495697 297.63323273 168.03960144 296.38380432 167.76620483 C293.76780786 167.19275293 291.15261282 166.61653171 288.53833008 166.03540039 C284.40549771 165.11676673 280.27037317 164.20878105 276.13476562 163.30273438 C271.96938567 162.38968131 267.80414369 161.47602966 263.63973999 160.55853271 C253.56792818 158.33957332 243.48837451 156.15923863 233.40115356 154.01141357 C214.93670619 150.0787334 196.48729722 146.07673207 178.03786469 142.07433701 C160.5689739 138.28472499 143.09672512 134.51198505 125.61621094 130.77636719 C111.1061665 127.67476722 96.60603703 124.52872316 82.1083374 121.3699646 C66.13860318 117.89098785 50.16077548 114.45114321 34.17578125 111.04296875 C26.08678061 109.31703854 18.00075602 107.57743096 9.921875 105.8046875 C9.15417786 105.63816681 8.38648071 105.47164612 7.59552002 105.30007935 C2.23089706 104.11544853 2.23089706 104.11544853 0 103 C0 69.01 0 35.02 0 0 Z " fill="#FFFEFD" transform="translate(419,428)"/>
<path d="M0 0 C3.02481014 1.03986999 4.97173367 2.73959409 7.171875 5.01171875 C7.74945557 5.60090088 8.32703613 6.19008301 8.92211914 6.79711914 C9.52531982 7.42094482 10.12852051 8.04477051 10.75 8.6875 C16.23729392 14.30364702 16.23729392 14.30364702 22.0625 19.5625 C26.36903545 23.20221706 30.26187986 27.23650795 34.22290039 31.24243164 C37.06657686 34.10590456 39.91883927 36.88884684 43 39.5 C47.32418706 43.1645653 51.24082291 47.21520866 55.22265625 51.2421875 C58.06641577 54.10574117 60.91875084 56.8887719 64 59.5 C68.32418706 63.1645653 72.24082291 67.21520866 76.22265625 71.2421875 C79.06641577 74.10574117 81.91875084 76.8887719 85 79.5 C89.32418706 83.1645653 93.24082291 87.21520866 97.22265625 91.2421875 C100.06641577 94.10574117 102.91875084 96.8887719 106 99.5 C110.32418706 103.1645653 114.24082291 107.21520866 118.22265625 111.2421875 C121.06641577 114.10574117 123.91875084 116.8887719 127 119.5 C130.70378566 122.63880141 134.08929145 126.05062676 137.5 129.5 C140.89006118 132.92844828 144.25193982 136.3226072 147.9375 139.4375 C152.51351762 143.313999 156.64986201 147.6252468 160.86474609 151.88427734 C164.41441758 155.45681919 168.03148977 158.84596877 171.87890625 162.09765625 C175.47737461 165.32501185 178.8252353 168.80624973 182.22290039 172.24243164 C185.06657686 175.10590456 187.91883927 177.88884684 191 180.5 C195.32418706 184.1645653 199.24082291 188.21520866 203.22265625 192.2421875 C206.06641577 195.10574117 208.91875084 197.8887719 212 200.5 C216.31394085 204.15588208 220.22206789 208.19580552 224.1940918 212.21362305 C228.29655981 216.34502838 232.51939681 220.27744448 237 224 C236.34 224.33 235.68 224.66 235 225 C232.76708984 224.03466797 232.76708984 224.03466797 229.9609375 222.4921875 C228.9179248 221.9242749 227.87491211 221.3563623 226.80029297 220.77124023 C225.66994629 220.14548096 224.53959961 219.51972168 223.375 218.875 C222.19590862 218.22975759 221.01637782 217.58531756 219.83642578 216.94165039 C217.40576851 215.61448359 214.97740639 214.2832549 212.55078125 212.94873047 C207.33987649 210.08516423 202.1060692 207.26399989 196.875 204.4375 C194.89304172 203.36362713 192.91127105 202.28940794 190.9296875 201.21484375 C184.95405642 197.974842 178.97712486 194.73724502 173 191.5 C170.99999432 190.41667715 168.99999432 189.33334382 167 188.25 C166.01 187.71375 165.02 187.1775 164 186.625 C97 150.33333333 30 114.04166667 -37 77.75 C-38.48741699 76.94453735 -38.48741699 76.94453735 -40.00488281 76.12280273 C-41.98910774 75.04771771 -43.9728385 73.97172009 -45.95605469 72.89477539 C-51.19356173 70.05225943 -56.44069461 67.22973491 -61.703125 64.43359375 C-62.79882812 63.84835937 -63.89453125 63.263125 -65.0234375 62.66015625 C-67.12448567 61.53841019 -69.2285179 60.42222981 -71.3359375 59.3125 C-72.28210938 58.80589844 -73.22828125 58.29929687 -74.203125 57.77734375 C-75.03489258 57.33640381 -75.86666016 56.89546387 -76.72363281 56.44116211 C-79.180363 54.88581265 -81.02389706 53.12280674 -83 51 C-68.70983096 41.86625895 -54.24441891 33.03369586 -39.73291016 24.25830078 C-34.01203612 20.7982785 -28.29616555 17.33000992 -22.58078003 13.8609314 C-20.79972215 12.78017178 -19.01818266 11.70020983 -17.23657227 10.62036133 C-16.14272217 9.95673584 -15.04887207 9.29311035 -13.921875 8.609375 C-12.89771484 7.99255859 -11.87355469 7.37574219 -10.81835938 6.74023438 C-9.04492552 5.64520349 -7.29208516 4.51533747 -5.57226562 3.33789062 C-3.453125 1.890625 -3.453125 1.890625 0 0 Z " fill="#FFFEFD" transform="translate(510,370)"/>
<path d="M0 0 C2.10467685 3.15701528 2.75894178 5.40288819 3.6875 9.0625 C4.03715602 10.41421899 4.38746938 11.76576803 4.73828125 13.1171875 C4.93502441 13.8812793 5.13176758 14.64537109 5.33447266 15.43261719 C8.91620259 29.24973823 12.63450076 43.02163431 16.80249023 56.67382812 C18.89617225 63.56347845 20.80643048 70.49549678 22.68212891 77.44726562 C24.5570025 84.39411463 26.48609129 91.3242849 28.4375 98.25 C30.87912779 106.9204077 33.24309604 115.60865169 35.5625 124.3125 C37.83165724 132.81523227 40.23374297 141.25982619 42.80322266 149.67626953 C44.8964799 156.5644332 46.80544419 163.49518185 48.68212891 170.44506836 C50.56344381 177.4115276 52.48761635 184.36492455 54.4375 191.3125 C54.73003662 192.35567383 55.02257324 193.39884766 55.32397461 194.47363281 C56.79766397 199.72544331 58.27493017 204.9762387 59.75390625 210.2265625 C62.75756916 220.90476045 65.70487144 231.59422861 68.5625 242.3125 C70.82822377 250.8018975 73.22325233 259.2344479 75.79223633 267.63671875 C78.51989468 276.60255648 80.95198271 285.64795065 83.36914062 294.70166016 C83.93227326 296.75325871 84.54854945 298.79009971 85.171875 300.82421875 C85.95793688 303.83869191 86.3514005 305.92259269 86 309 C84.48168945 310.52612305 84.48168945 310.52612305 82.30078125 311.82421875 C81.47400879 312.33001465 80.64723633 312.83581055 79.79541016 313.35693359 C78.8729248 313.89914551 77.95043945 314.44135742 77 315 C74.99328324 316.23534196 72.98678522 317.47103928 70.98046875 318.70703125 C69.30598582 319.72097353 67.63145708 320.73484355 65.95529175 321.7460022 C64.13642456 322.8433135 62.31914091 323.94320809 60.50219727 325.04370117 C56.6694125 327.36458839 52.8347794 329.68241051 49 332 C44.73538349 334.57775336 40.47150205 337.15671139 36.20956421 339.7388916 C35.03151954 340.45261216 33.85331807 341.16607395 32.67495728 341.87927246 C24.21140054 347.00418218 15.80776344 352.21552624 7.50561523 357.59887695 C2.21141997 361 2.21141997 361 0 361 C0 241.87 0 122.74 0 0 Z " fill="#FFFEFD" transform="translate(419,54)"/>
<path d="M0 0 C0 33 0 66 0 100 C-25.67807021 107.18985966 -25.67807021 107.18985966 -34.91821289 109.7487793 C-44.98538759 112.54274489 -54.98770939 115.50076815 -64.96923828 118.5859375 C-71.54517253 120.60193399 -78.13235325 122.31094378 -84.8203125 123.91796875 C-89.8969836 125.18775473 -94.87848079 126.76188517 -99.875 128.3125 C-108.1662538 130.88103866 -116.48703943 133.26726965 -124.875 135.5 C-126.5005481 135.93276245 -126.5005481 135.93276245 -128.15893555 136.37426758 C-129.244729 136.66325928 -130.33052246 136.95225098 -131.44921875 137.25 C-147.04618003 141.4023926 -162.54923035 145.82012515 -177.96948242 150.5859375 C-184.54529689 152.60207207 -191.13242919 154.31096202 -197.8203125 155.91796875 C-202.8969836 157.18775473 -207.87848079 158.76188517 -212.875 160.3125 C-223.33615997 163.55325157 -233.8706907 166.43487156 -244.453125 169.25 C-260.47046672 173.51367742 -276.4086472 178.06680378 -292.29931641 182.77929688 C-293.23694824 183.05580078 -294.17458008 183.33230469 -295.140625 183.6171875 C-295.96079102 183.86065918 -296.78095703 184.10413086 -297.62597656 184.35498047 C-300.06882806 185.01870051 -302.51294687 185.53167319 -305 186 C-302.4715404 183.18421544 -299.62408558 181.42317351 -296.390625 179.48046875 C-295.8362677 179.14565994 -295.2819104 178.81085114 -294.71075439 178.46589661 C-292.89286637 177.36911972 -291.07143753 176.27837006 -289.25 175.1875 C-287.97432918 174.41908476 -286.69894171 173.65019894 -285.42382812 172.88085938 C-282.83892702 171.3216758 -280.25289984 169.76438701 -277.66601562 168.20849609 C-272.59872508 165.15861608 -267.54917671 162.07974525 -262.5 159 C-254.60396849 154.19048521 -246.70292017 149.38926997 -238.79934692 144.59216309 C-234.65747795 142.07814184 -230.51601176 139.56345707 -226.37451172 137.04882812 C-224.20176312 135.72964811 -222.0289191 134.41062523 -219.85595703 133.09179688 C-208.77206403 126.36338269 -197.71544972 119.59512136 -186.70141602 112.75292969 C-180.01379928 108.60699844 -173.27514647 104.55171096 -166.51879883 100.51904297 C-160.47549569 96.90456762 -154.47976905 93.21851185 -148.5 89.5 C-140.80979654 84.71862223 -133.07482326 80.02021431 -125.30200195 75.37451172 C-118.42177132 71.26058729 -111.57811203 67.08934752 -104.7421875 62.90234375 C-99.43844715 59.65394295 -94.12569928 56.42039903 -88.8125 53.1875 C-87.36290894 52.305177 -87.36290894 52.305177 -85.8840332 51.4050293 C-80.97742207 48.41883775 -76.0696542 45.43456814 -71.16015625 42.453125 C-60.98528655 36.2712403 -50.83681619 30.05072366 -40.72460938 23.7668457 C-33.81095546 19.47993406 -26.84341873 15.28760781 -19.85522461 11.12353516 C-14.45632605 7.89935197 -9.14148252 4.58268558 -3.8984375 1.109375 C-2 0 -2 0 0 0 Z " fill="#FFFEFD" transform="translate(410,432)"/>
<path d="M0 0 C0.33 0 0.66 0 1 0 C1 116.82 1 233.64 1 354 C-17.28530359 344.85734821 -17.28530359 344.85734821 -25.5 340.3125 C-27.38133009 339.2796194 -29.26284748 338.24707988 -31.14453125 337.21484375 C-32.10182129 336.68874512 -33.05911133 336.16264648 -34.04541016 335.62060547 C-49.28364175 327.26236871 -64.59547176 319.04741275 -80 311 C-79.23850927 304.54109064 -77.72718406 298.3128938 -76.1875 292 C-75.91615234 290.87932129 -75.64480469 289.75864258 -75.36523438 288.60400391 C-73.52688059 281.05299849 -71.58994092 273.53888709 -69.54931641 266.04003906 C-68.40315405 261.78344677 -67.29840423 257.51590104 -66.1875 253.25 C-65.80851562 251.7956958 -65.80851562 251.7956958 -65.421875 250.31201172 C-63.14352171 241.56273835 -60.87589556 232.8106856 -58.60839844 224.05859375 C-55.51050792 212.1042202 -52.39129913 200.15544244 -49.27050781 188.20703125 C-46.3369055 176.97395856 -43.4116904 165.73877433 -40.5 154.5 C-37.10566699 141.39828332 -33.69076697 128.30199938 -30.27050781 115.20703125 C-27.3369055 103.97395856 -24.4116904 92.73877433 -21.5 81.5 C-18.83196616 71.20171063 -16.15403793 60.9060647 -13.46484375 50.61328125 C-12.47399836 46.82000473 -11.48741645 43.02565354 -10.50390625 39.23046875 C-7.10391118 26.12533379 -3.59411656 13.05323042 0 0 Z " fill="#FFFEFD" transform="translate(409,59)"/>
<path d="M0 0 C8.68227278 2.45472399 16.30112494 6.66684575 24.1875 10.9375 C25.62178405 11.70772731 27.05635745 12.47741603 28.49121094 13.24658203 C32.66621719 15.48776908 36.833902 17.74230785 41 20 C42.09328613 20.59151855 43.18657227 21.18303711 44.31298828 21.79248047 C50.55414585 25.17297932 56.780594 28.57967835 63 32 C64.92968001 33.05990948 66.85936766 34.11980503 68.7890625 35.1796875 C73.52764697 37.78354699 78.26454854 40.39044744 83 43 C81.74445964 46.76662109 80.61469507 47.11064011 77.2421875 49.08203125 C75.73277588 49.97450562 75.73277588 49.97450562 74.19287109 50.88500977 C73.09797363 51.52108154 72.00307617 52.15715332 70.875 52.8125 C69.15708026 53.82618316 67.43916991 54.83988309 65.72207642 55.85496521 C64.54643646 56.54939553 63.37013814 57.2427124 62.19320679 57.93495178 C56.55179125 61.25341719 50.95946836 64.64936526 45.375 68.0625 C43.47271629 69.22275469 41.5703725 70.3829109 39.66796875 71.54296875 C38.73130371 72.11450684 37.79463867 72.68604492 36.82958984 73.27490234 C34.009066 74.99447279 31.18653731 76.71070087 28.36328125 78.42578125 C18.3271424 84.5238199 8.30913836 90.64990011 -1.6875 96.8125 C-10.73082861 102.38608278 -19.79251436 107.92806019 -28.875 113.4375 C-29.45492706 113.78929321 -30.03485413 114.14108643 -30.63235474 114.50354004 C-35.34429623 117.36140072 -40.05750018 120.21717697 -44.77075195 123.07287598 C-48.88942355 125.56844675 -53.00759665 128.06483726 -57.125 130.5625 C-57.70554138 130.91464569 -58.28608276 131.26679138 -58.88421631 131.62960815 C-67.27571691 136.72141636 -75.64511526 141.84828623 -84 147 C-96.44623596 154.67448592 -108.94067115 162.2678005 -121.44580078 169.84570312 C-130.87719316 175.56146248 -140.30222957 181.28771643 -149.72802734 187.01269531 C-151.83242418 188.2908471 -153.93690915 189.56885381 -156.04150391 190.84667969 C-166.72776868 197.33611128 -177.40082141 203.84680321 -188.05194092 210.39376831 C-189.68751837 211.39909494 -191.32348777 212.4037838 -192.95947266 213.40844727 C-193.97831543 214.03549561 -194.9971582 214.66254395 -196.046875 215.30859375 C-197.03236328 215.91429199 -198.01785156 216.51999023 -199.03320312 217.14404297 C-201.08341192 218.42660446 -203.11778803 219.73470044 -205.13867188 221.06298828 C-206.62463867 222.03921143 -206.62463867 222.03921143 -208.140625 223.03515625 C-209.02782227 223.62820557 -209.91501953 224.22125488 -210.82910156 224.83227539 C-211.54549805 225.21762451 -212.26189453 225.60297363 -213 226 C-213.66 225.67 -214.32 225.34 -215 225 C-207.59082643 216.98511297 -200.13062536 209.07186449 -192.3671875 201.3984375 C-190.37967797 199.38469022 -188.5160666 197.34357107 -186.6875 195.1875 C-183.33111691 191.24598475 -179.67681813 187.63862238 -176 184 C-170.58504866 178.65535023 -170.58504866 178.65535023 -165.5 173 C-162.21603046 169.11285239 -158.61386156 165.57645583 -155 162 C-149.61461721 156.6879844 -149.61461721 156.6879844 -144.5625 151.0625 C-140.49925535 146.25103638 -135.94173997 141.91823345 -131.47119141 137.49072266 C-127.7902331 133.83169113 -124.27841337 130.12268808 -120.93359375 126.15234375 C-117.49111932 122.32041767 -113.77333598 118.75498084 -110.11303711 115.13256836 C-107.13182682 112.17043018 -104.2142922 109.21283566 -101.5 106 C-98.21603046 102.11285239 -94.61386156 98.57645583 -91 95 C-85.61461721 89.6879844 -85.61461721 89.6879844 -80.5625 84.0625 C-76.49925535 79.25103638 -71.94173997 74.91823345 -67.47119141 70.49072266 C-63.7902331 66.83169113 -60.27841337 63.12268808 -56.93359375 59.15234375 C-53.49111932 55.32041767 -49.77333598 51.75498084 -46.11303711 48.13256836 C-43.13182682 45.17043018 -40.2142922 42.21283566 -37.5 39 C-33.64877784 34.44141051 -29.35336869 30.32897829 -25.11547852 26.13500977 C-21.55296275 22.59530323 -18.17112858 18.99000845 -14.9296875 15.15234375 C-10.19881143 9.87559736 -5.04366628 4.97540613 0 0 Z " fill="#FFFEFD" transform="translate(324,378)"/>
<path d="M0 0 C1.59652908 -0.00101212 1.59652908 -0.00101212 3.22531128 -0.00204468 C21.04614038 0.01583346 38.45243515 0.80277236 56.125 3.25 C57.39504883 3.42160645 58.66509766 3.59321289 59.97363281 3.77001953 C78.69599367 6.3660941 96.89569182 10.2855386 115.125 15.25 C116.32455322 15.56638428 116.32455322 15.56638428 117.54833984 15.88916016 C173.92880409 30.77462665 226.71339886 60.82449342 271.125 98.25 C272.1459375 99.0853125 273.166875 99.920625 274.21875 100.78125 C283.10864788 108.16917235 291.31569856 116.22553334 299.5 124.375 C300.05785187 124.92767548 300.61570374 125.48035095 301.19046021 126.04977417 C307.59418602 132.40662765 313.65419334 138.8400433 319.2644043 145.91796875 C320.9680558 148.05328947 322.73247695 150.09792364 324.5625 152.125 C339.85742799 169.51512361 352.59650609 189.22940742 364.125 209.25 C364.7739624 210.36640869 364.7739624 210.36640869 365.43603516 211.50537109 C391.95082273 257.27215579 408.51464995 308.00655475 416.125 360.25 C416.29016113 361.33651855 416.45532227 362.42303711 416.62548828 363.54248047 C421.95548857 400.05876991 421.64956526 439.78025667 416.125 476.25 C415.95871094 477.40677246 415.79242187 478.56354492 415.62109375 479.75537109 C409.65743308 520.46839895 397.82035405 560.09295637 380.125 597.25 C379.46250244 598.65330566 379.46250244 598.65330566 378.78662109 600.08496094 C369.99335256 618.58324984 359.85671069 636.44930488 348.125 653.25 C347.22643747 654.56111224 346.32801025 655.87231721 345.4296875 657.18359375 C333.15768616 674.96393445 319.4339595 692.45967248 303.875 707.5 C302.0565887 709.3184113 300.40801828 711.2224413 298.75 713.1875 C295.41409006 717.056855 291.74757855 720.40318623 287.9140625 723.7734375 C285.94056554 725.52581435 284.00358086 727.29052218 282.0859375 729.1015625 C274.97278614 735.81212393 267.61112304 742.00065725 259.83935547 747.93408203 C258.17462291 749.21191007 256.52497832 750.50685053 254.87890625 751.80859375 C221.11420232 778.39590993 181.55286062 799.21338818 141.01953125 813.24511719 C138.52435522 814.11135745 136.04224044 815.00489908 133.5625 815.9140625 C109.666122 824.50051016 84.19336973 829.64635638 59.125 833.25 C57.50392334 833.49556641 57.50392334 833.49556641 55.85009766 833.74609375 C19.33631022 839.07802108 -20.40812588 838.79331099 -56.875 833.25 C-58.05304199 833.07839355 -59.23108398 832.90678711 -60.44482422 832.72998047 C-98.35686161 827.09529195 -136.09506966 816.51203916 -170.875 800.25 C-171.8330957 799.81252441 -172.79119141 799.37504883 -173.77832031 798.92431641 C-207.7649043 783.38898083 -239.29416601 763.32230806 -267.875 739.25 C-268.87273437 738.43789063 -269.87046875 737.62578125 -270.8984375 736.7890625 C-280.1891118 729.09763624 -288.71214754 720.62928856 -297.25 712.125 C-298.15853226 711.22423233 -298.15853226 711.22423233 -299.0854187 710.30526733 C-306.49949173 702.94113932 -313.3955336 695.45929443 -319.875 687.25 C-320.73794409 686.22207693 -321.60634932 685.19866481 -322.484375 684.18359375 C-337.49037199 666.685725 -350.33758888 647.17780924 -361.875 627.25 C-362.26655273 626.57662598 -362.65810547 625.90325195 -363.06152344 625.20947266 C-379.18406814 597.3230567 -392.13005748 567.28212788 -400.875 536.25 C-401.11379883 535.41791016 -401.35259766 534.58582031 -401.59863281 533.72851562 C-408.69826058 508.73708922 -413.43436783 483.10950541 -415.875 457.25 C-416.01639404 455.9036145 -416.01639404 455.9036145 -416.16064453 454.5300293 C-417.25022523 442.82434616 -417.11886606 431.05827491 -417.125 419.3125 C-417.12567474 418.15216248 -417.12634949 416.99182495 -417.12704468 415.79632568 C-417.1103864 397.74217699 -416.49500323 380.13616375 -413.875 362.25 C-413.70871094 361.05503906 -413.54242188 359.86007812 -413.37109375 358.62890625 C-407.05818962 314.06447934 -393.89222231 270.10991286 -372.89941406 230.20898438 C-371.78654453 228.08084684 -370.70144299 225.93972312 -369.6171875 223.796875 C-357.07329895 199.21607686 -341.75173775 176.1353879 -324.19189453 154.85498047 C-322.98638306 153.3857494 -321.80257406 151.89878049 -320.62109375 150.41015625 C-306.57935553 132.79979948 -290.25079083 114.98399907 -272.39453125 101.234375 C-270.20701009 99.51149012 -268.12814885 97.73009864 -266.04296875 95.88671875 C-227.01859723 61.55109295 -177.95742596 36.45289904 -128.875 20.25 C-127.77849121 19.88777344 -126.68198242 19.52554687 -125.55224609 19.15234375 C-96.36032149 9.67098157 -66.36801096 4.30103464 -35.875 1.25 C-34.88564453 1.146875 -33.89628906 1.04375 -32.87695312 0.9375 C-21.94548289 -0.06211191 -10.96794009 0.00626369 0 0 Z M-46.4375 6.5625 C-47.34422455 6.66919006 -48.2509491 6.77588013 -49.18515015 6.88580322 C-58.21948321 7.9699849 -67.21497911 9.23564349 -76.1796875 10.796875 C-76.84863541 10.91327835 -77.51758331 11.0296817 -78.20680237 11.14961243 C-83.9656731 12.19251879 -89.55429147 13.65980928 -95.1875 15.23828125 C-98.75457074 16.2169585 -102.33279472 17.04762691 -105.9375 17.875 C-149.68671632 28.49384984 -193.06609963 48.47695147 -229.875 74.25 C-231.27459127 75.21636067 -232.6743374 76.18249708 -234.07421875 77.1484375 C-248.75631953 87.33756492 -262.51752689 98.38414868 -275.875 110.25 C-276.39803711 110.71374023 -276.92107422 111.17748047 -277.45996094 111.65527344 C-288.88045286 121.82746175 -300.03275315 132.52995605 -309.875 144.25 C-310.75881475 145.26051789 -311.64440641 146.26948296 -312.53125 147.27734375 C-328.46970761 165.47401149 -342.61515114 185.40170087 -354.875 206.25 C-355.31134766 206.98347656 -355.74769531 207.71695313 -356.19726562 208.47265625 C-387.45286073 261.17153514 -409.90704469 324.33494154 -411.734375 386.203125 C-411.875 389.25 -411.875 389.25 -412.36889648 391.36669922 C-413.07533279 395.39130742 -413.07721289 399.35019788 -413.11328125 403.4296875 C-413.12790405 404.79194206 -413.12790405 404.79194206 -413.14282227 406.18171692 C-413.55646443 455.03570014 -407.41594675 501.78112579 -391.875 548.25 C-391.60574707 549.06033691 -391.33649414 549.87067383 -391.05908203 550.70556641 C-381.48811615 579.329068 -369.04269313 607.7040093 -352.875 633.25 C-352.45186523 633.92853027 -352.02873047 634.60706055 -351.59277344 635.30615234 C-341.29237592 651.79365023 -329.92487951 667.47059246 -317.44287109 682.37353516 C-315.97661309 684.12838707 -314.52881047 685.89706174 -313.08203125 687.66796875 C-305.79043039 696.45268321 -297.79661045 704.53939511 -289.75 712.625 C-289.19696198 713.18330505 -288.64392395 713.74161011 -288.0741272 714.3168335 C-280.99794109 721.4450687 -273.75502387 728.00855998 -265.875 734.25 C-264.03890858 735.80925805 -262.20495036 737.37103933 -260.375 738.9375 C-240.49926032 755.48354103 -218.78690346 769.43067246 -196.20117188 781.95556641 C-194.19235299 783.07340412 -192.19620939 784.2099474 -190.203125 785.35546875 C-150.50261972 807.53835477 -104.75582175 820.97174244 -59.875 827.25 C-58.48982178 827.44722656 -58.48982178 827.44722656 -57.07666016 827.6484375 C-54.11482072 828.06669559 -51.15160933 828.47316153 -48.1875 828.875 C-47.29804688 828.9982666 -46.40859375 829.1215332 -45.4921875 829.24853516 C-0.28314029 835.17853173 45.6298616 830.95570526 90.125 822.25 C90.99721191 822.08419434 91.86942383 821.91838867 92.76806641 821.74755859 C151.93066037 810.30567393 209.1687743 780.23433906 256.125 743.25 C256.9603125 742.59773437 257.795625 741.94546875 258.65625 741.2734375 C268.90421099 733.18819555 278.88717422 724.82139595 287.94140625 715.40625 C290.125 713.25 290.125 713.25 292.69140625 711.20703125 C294.92740493 709.40890069 296.66735583 707.63220315 298.5 705.4375 C300.73880982 702.81268848 303.01534494 700.3301308 305.5 697.9375 C309.23272535 694.26296859 312.47886926 690.25513992 315.7578125 686.17578125 C318.06397396 683.32542658 320.43294096 680.53915527 322.8125 677.75 C340.61157971 656.34708808 355.26703278 632.89403481 368.125 608.25 C368.70870361 607.13238281 368.70870361 607.13238281 369.30419922 605.9921875 C389.57348282 566.91365763 402.70116426 524.96250591 409.59570312 481.56494141 C409.92918608 479.47636596 410.27511319 477.389703 410.63867188 475.30615234 C413.7577188 456.77695042 414.50843392 438.06839891 414.4375 419.3125 C414.43567719 418.29874298 414.43385437 417.28498596 414.43197632 416.24050903 C414.37843095 398.41373774 413.51914662 380.93039579 411.125 363.25 C410.95871094 362.01652832 410.79242187 360.78305664 410.62109375 359.51220703 C406.70737512 331.61971415 400.17597186 303.59542497 390.125 277.25 C389.81119385 276.42129395 389.4973877 275.59258789 389.17407227 274.73876953 C370.8911951 226.81344926 345.21193063 181.51436198 310.3203125 143.65625 C309.09323677 142.3112702 307.87460073 140.95799527 306.68945312 139.57592773 C301.95895121 134.0623738 296.93836609 128.8771832 291.80175781 123.74145508 C290.38580053 122.32331716 288.97801711 120.89703335 287.5703125 119.47070312 C282.14157723 114.03062648 276.56513487 108.98108472 270.54467773 104.20214844 C268.25809136 102.3573755 266.09094421 100.43481401 263.9375 98.4375 C246.87449164 83.18010099 226.92895342 70.61978713 207.125 59.25 C206.44969238 58.85893066 205.77438477 58.46786133 205.07861328 58.06494141 C174.34298182 40.33419673 140.54794589 26.04418326 106.125 17.25 C105.39812988 17.06228027 104.67125977 16.87456055 103.92236328 16.68115234 C70.17240062 8.10041935 34.70998302 4.04886444 -0.0625 3.875 C-0.95419891 3.87043793 -1.84589783 3.86587585 -2.76461792 3.86117554 C-17.44035125 3.8347678 -31.8670005 4.84260985 -46.4375 6.5625 Z " fill="#060400" transform="translate(416.875,-0.24999999999999997)"/>
<path d="M0 0 C11.69047117 7.69906435 17.31457134 20.69179138 20.7578125 33.87109375 C22.79652822 45.42381616 22.38426211 56.47086514 16.6015625 66.83984375 C9.80068324 75.38952053 1.11782813 77.83748849 -8.9609375 80.65234375 C-9.85554687 80.90822266 -10.75015625 81.16410156 -11.671875 81.42773438 C-17.27610488 83.01206971 -22.88970278 84.37750866 -28.5859375 85.58984375 C-31.74111687 77.9959449 -34.45819122 70.29410747 -37.0625 62.49609375 C-37.67948257 60.65513123 -37.67948257 60.65513123 -38.30892944 58.77697754 C-39.17323808 56.19593282 -40.035121 53.61409281 -40.89550781 51.03173828 C-41.98981578 47.74861081 -43.09237439 44.46831971 -44.19704628 41.1886673 C-45.26181605 38.02212567 -46.31784703 34.85268628 -47.375 31.68359375 C-47.96409653 29.93786072 -47.96409653 29.93786072 -48.56509399 28.15686035 C-50.70995046 21.68636203 -52.4586581 15.31620166 -53.5859375 8.58984375 C-46.38559549 5.84133076 -39.13007158 3.50714172 -31.72485352 1.38720703 C-27.95522387 0.30461639 -24.2642292 -0.85458987 -20.5859375 -2.22265625 C-12.95933524 -4.75509807 -7.00011488 -3.9118289 0 0 Z " fill="#F9BC00" transform="translate(568.5859375,694.41015625)"/>
<path d="M0 0 C2.72335435 1.93110581 5.37143156 3.94186742 8 6 C9.051875 6.79470703 9.051875 6.79470703 10.125 7.60546875 C12.73272808 9.8188831 14.75354085 11.57327536 15.3515625 15.03515625 C15.15334001 17.78667322 14.62237605 20.30855463 14 23 C13.67025188 24.54783219 13.34227631 26.09604256 13.015625 27.64453125 C12.05859504 32.10818224 11.04098798 36.55522343 10 41 C10.85754883 40.87359131 11.71509766 40.74718262 12.59863281 40.61694336 C15.7883694 40.15049516 18.97900595 39.69097082 22.17041016 39.23608398 C23.55004121 39.0379989 24.92928252 38.83717892 26.30810547 38.63354492 C28.29289168 38.34090701 30.2792498 38.05899396 32.265625 37.77734375 C33.45961914 37.60452881 34.65361328 37.43171387 35.88378906 37.25366211 C40.44081884 36.88271617 42.15414167 37.3039163 45.69140625 40.21484375 C47.11259766 41.56255859 47.11259766 41.56255859 48.5625 42.9375 C51.32184016 45.53959147 53.84271117 47.89514078 57 50 C55.57925676 53.245613 53.86237319 55.3626159 51.33203125 57.828125 C50.60306641 58.54613281 49.87410156 59.26414062 49.12304688 60.00390625 C48.36056641 60.74511719 47.59808594 61.48632812 46.8125 62.25 C41.90040953 67.0470632 37.16087952 71.87995712 32.6862793 77.08886719 C29.935965 80.2059166 26.96918991 83.09338001 24 86 C19.60276057 90.3461425 15.31318562 94.71175009 11.33203125 99.44921875 C9.95880466 101.04796055 8.50744542 102.52812851 7 104 C3.41597305 102.46751951 0.97149866 100.3325399 -1.8125 97.625 C-3.02873047 96.46871094 -3.02873047 96.46871094 -4.26953125 95.2890625 C-6 93 -6 93 -5.81762695 91.08251953 C-4.82661113 88.55837352 -3.5979547 87.27078778 -1.6484375 85.390625 C-0.96136719 84.71773437 -0.27429688 84.04484375 0.43359375 83.3515625 C1.15675781 82.65804687 1.87992188 81.96453125 2.625 81.25 C7.43497076 76.59061765 12.08378423 71.90336879 16.42749023 66.80175781 C18.81948722 64.06104399 21.39692134 61.53958894 24 59 C14.80284886 59.44158507 5.8390325 60.52350857 -3.24511719 61.98364258 C-4.06399414 62.11407959 -4.88287109 62.2445166 -5.7265625 62.37890625 C-6.45439941 62.4982251 -7.18223633 62.61754395 -7.93212891 62.74047852 C-10 63 -10 63 -14 63 C-13.38485873 57.32275872 -12.37465408 51.91346137 -11 46.375 C-9.82693005 41.59771512 -8.73734701 36.86956257 -8 32 C-8.4846875 32.49628906 -8.969375 32.99257813 -9.46875 33.50390625 C-13.40048579 37.48856925 -17.40262864 41.29607231 -21.65625 44.93359375 C-23.54884154 46.60222863 -25.38879215 48.29935611 -27.21875 50.03515625 C-27.79020752 50.57430664 -28.36166504 51.11345703 -28.95043945 51.66894531 C-30.08725985 52.74457074 -31.21884636 53.82576164 -32.34448242 54.91308594 C-35.59242896 57.97474374 -37.72485537 59.28994215 -42 61 C-45.63 57.04 -49.26 53.08 -53 49 C-49.40031771 44.5903892 -45.73374098 40.76496594 -41.40234375 37.08203125 C-38.37113267 34.45498164 -35.43795493 31.73041171 -32.5 29 C-28.44433209 25.23776246 -24.35523696 21.53384002 -20.16796875 17.91796875 C-16.60365484 14.76467482 -13.12996129 11.51222233 -9.65429688 8.26171875 C-6.53796562 5.36174667 -3.36442186 2.61538545 0 0 Z " fill="#FBBD00" transform="translate(182,612)"/>
<path d="M0 0 C7.89962386 1.49622465 15.43142871 4.33467011 23 7 C23.88461914 7.3088916 24.76923828 7.6177832 25.68066406 7.93603516 C28.36117944 8.88685765 31.02501233 9.8749243 33.6875 10.875 C34.51193604 11.16576416 35.33637207 11.45652832 36.18579102 11.75610352 C43.28663716 14.50193822 47.90819315 18.99828254 51.4375 25.75 C53.16128779 35.70966281 52.33142856 43.54130178 46.6796875 51.96875 C43.28754831 56.34331202 39.32634579 59.34770391 34 61 C31.25390625 61.09765625 31.25390625 61.09765625 29 61 C29.33773437 62.12277344 29.67546875 63.24554687 30.0234375 64.40234375 C32.2611761 71.89295848 34.46541206 79.32706029 36 87 C33.94037148 87.67548578 31.87715678 88.34004312 29.8125 89 C28.08966797 89.556875 28.08966797 89.556875 26.33203125 90.125 C23.35679188 90.90630553 21.04716104 91.18363306 18 91 C17.47461089 89.12022668 16.94967999 87.24032436 16.42675781 85.35986328 C15.97231903 83.73326096 15.51326622 82.10794125 15.04980469 80.48388672 C13.93450274 76.54176481 12.88840531 72.62565201 12.09375 68.60546875 C10.89626154 61.61232688 10.89626154 61.61232688 6.75 56.18359375 C4.48801123 55.16923316 2.43066337 54.46224154 0 54 C-0.15855469 54.55945313 -0.31710937 55.11890625 -0.48046875 55.6953125 C-2.67842546 63.2485118 -5.30665281 70.6119251 -8 78 C-11.96572416 77.42517322 -15.56660035 76.61423871 -19.3125 75.1875 C-20.17488281 74.87167969 -21.03726562 74.55585937 -21.92578125 74.23046875 C-24 73 -24 73 -24.77490234 71.3671875 C-25.10479217 67.89797735 -23.88726853 65.08462583 -22.67578125 61.89453125 C-22.41803925 61.18973129 -22.16029724 60.48493134 -21.89474487 59.7587738 C-21.04400808 57.4395232 -20.17829996 55.12616476 -19.3125 52.8125 C-18.72134557 51.20905166 -18.1312695 49.60520537 -17.54223633 48.00097656 C-16.3199874 44.67600783 -15.09222032 41.35315452 -13.86035156 38.03173828 C-11.1997788 30.84923451 -8.5939471 23.6468978 -5.98397827 16.44589233 C-4.71496327 12.94721521 -3.44158679 9.4501286 -2.16796875 5.953125 C-1.74797607 4.79973633 -1.3279834 3.64634766 -0.89526367 2.45800781 C-0.59982666 1.64686523 -0.30438965 0.83572266 0 0 Z " fill="#FBBD00" transform="translate(309,699)"/>
<path d="M0 0 C8.40614546 4.07194701 16.52067012 8.50235309 24.5625 13.25 C25.62791016 13.87390625 26.69332031 14.4978125 27.79101562 15.140625 C35.48623512 19.65749008 35.48623512 19.65749008 39 22 C37.42986223 27.96652354 34.24970218 32.82909025 31 38 C17.32594509 31.33581874 17.32594509 31.33581874 12.3125 28.0625 C9.22590535 25.73572077 9.22590535 25.73572077 6 26 C4.29803144 28.2269175 4.29803144 28.2269175 2.8125 31 C2.28269531 31.928125 1.75289062 32.85625 1.20703125 33.8125 C0.80871094 34.534375 0.41039062 35.25625 0 36 C0.98226562 36.34417969 0.98226562 36.34417969 1.984375 36.6953125 C5.9661758 38.4180087 9.5625876 40.60021141 13.25 42.875 C13.9821875 43.30941406 14.714375 43.74382813 15.46875 44.19140625 C16.16484375 44.62066406 16.8609375 45.04992187 17.578125 45.4921875 C18.21137695 45.87745605 18.84462891 46.26272461 19.49707031 46.65966797 C21.41214142 48.36755302 21.77151112 49.46130248 22 52 C20.34765625 55.015625 20.34765625 55.015625 18.0625 58.25 C17.31097656 59.32765625 16.55945313 60.4053125 15.78515625 61.515625 C15.19605469 62.33546875 14.60695313 63.1553125 14 64 C11.15919691 63.39812504 8.97638038 62.55403685 6.50390625 61.0390625 C5.86259766 60.64976562 5.22128906 60.26046875 4.56054688 59.859375 C3.90119141 59.45203125 3.24183594 59.0446875 2.5625 58.625 C1.90701172 58.22539063 1.25152344 57.82578125 0.57617188 57.4140625 C-0.69897563 56.63643995 -1.97294966 55.85688909 -3.24560547 55.07519531 C-5.4877125 53.70110133 -7.74240695 52.34846598 -10 51 C-10.268125 51.721875 -10.53625 52.44375 -10.8125 53.1875 C-12 56 -12 56 -13.625 58.6875 C-15.17035846 60.83811106 -15.17035846 60.83811106 -15 63 C-12.70079115 64.62200901 -12.70079115 64.62200901 -9.75 66.2578125 C-8.6671875 66.88300781 -7.584375 67.50820313 -6.46875 68.15234375 C-5.3240625 68.80332031 -4.179375 69.45429687 -3 70.125 C-1.84335718 70.78968149 -0.6871017 71.45503749 0.46875 72.12109375 C3.30874705 73.75409205 6.15256522 75.38001661 9 77 C8.08973193 78.73254356 7.17146832 80.46088734 6.25 82.1875 C5.73953125 83.15042969 5.2290625 84.11335937 4.703125 85.10546875 C3.01580859 87.97313264 1.13871467 90.4567893 -1 93 C-4.93025652 90.70988979 -8.85879275 88.41686372 -12.78588867 86.12133789 C-14.11682122 85.34387832 -15.44818813 84.56716177 -16.7800293 83.79125977 C-24.96427474 79.0225111 -33.05642189 74.16348114 -41 69 C-39.80504238 65.86709013 -38.51513609 62.98752152 -36.77734375 60.12109375 C-36.32987793 59.37891602 -35.88241211 58.63673828 -35.42138672 57.87207031 C-34.9317041 57.06866211 -34.44202148 56.26525391 -33.9375 55.4375 C-33.41945801 54.58124023 -32.90141602 53.72498047 -32.36767578 52.84277344 C-31.21573555 50.94020976 -30.06198988 49.03873841 -28.90673828 47.13818359 C-27.2222426 44.36577547 -25.54174018 41.5909914 -23.86312866 38.8150177 C-16.00322334 25.81764285 -8.11493847 12.8403449 0 0 Z " fill="#FBBD00" transform="translate(252,668)"/>
<path d="M0 0 C3.88397689 1.55002747 6.02979619 4.00476621 8.75 7.125 C9.54921875 8.03507813 10.3484375 8.94515625 11.171875 9.8828125 C11.77515625 10.58148437 12.3784375 11.28015625 13 12 C9.00323682 16.05789914 4.87084366 19.94796935 0.6875 23.8125 C0.04232422 24.40998047 -0.60285156 25.00746094 -1.26757812 25.62304688 C-2.84423492 27.08291428 -4.42200338 28.54158093 -6 30 C-5.30560823 33.08990392 -4.55025788 34.86637573 -2.4375 37.25 C-1.633125 38.1575 -0.82875 39.065 0 40 C4.00006451 37.79381614 7.11950109 35.19224365 10.4375 32.0625 C14.20828444 28.50626944 17.60643015 25.92904657 22 23 C25.63 26.96 29.26 30.92 33 35 C31.26690881 38.46618238 30.61388744 39.61209959 27.84765625 41.91015625 C27.23599609 42.42513672 26.62433594 42.94011719 25.99414062 43.47070312 C25.35669922 43.99599609 24.71925781 44.52128906 24.0625 45.0625 C22.8025117 46.11484018 21.54336808 47.16819271 20.28515625 48.22265625 C19.72707275 48.68422119 19.16898926 49.14578613 18.59399414 49.62133789 C16.9842435 51.01362796 15.48616985 52.47739755 14 54 C15.3697164 57.99500618 17.25722422 60.80009492 20 64 C23.76696739 62.41205122 26.34043817 60.02448488 29.3125 57.25 C30.27800781 56.36183594 31.24351562 55.47367188 32.23828125 54.55859375 C33.88464301 53.03332225 35.52872281 51.50557273 37.16796875 49.97265625 C38.71308633 48.57249639 40.3485427 47.27299833 42 46 C45.93472548 47.31157516 47.12683424 49.33383447 49.6875 52.5625 C50.49574219 53.57441406 51.30398438 54.58632813 52.13671875 55.62890625 C52.75160156 56.41136719 53.36648438 57.19382812 54 58 C52.45427224 61.81628832 50.11228755 63.97025743 47.0625 66.6875 C46.57595947 67.12247803 46.08941895 67.55745605 45.58813477 68.00561523 C41.40488922 71.71515886 37.07738009 75.23925381 32.7265625 78.75 C28.35571736 82.35688653 24.17473051 86.16939044 20 90 C16.26107049 88.49775154 14.45906395 86.39834702 12 83.25 C8.4197506 78.75113397 4.76054813 74.34917639 1 70 C-2.55526754 65.87597887 -6.06794733 61.72789097 -9.5 57.5 C-13.93816101 52.03516058 -18.51201679 46.69350553 -23.10546875 41.359375 C-23.57259277 40.81087891 -24.0397168 40.26238281 -24.52099609 39.69726562 C-25.56696998 38.49693376 -26.64067883 37.32050857 -27.73291016 36.16210938 C-28.29155762 35.55689453 -28.85020508 34.95167969 -29.42578125 34.328125 C-29.94180908 33.78575195 -30.45783691 33.24337891 -30.98950195 32.68457031 C-32 31 -32 31 -31.75 28.88793945 C-30.80385446 26.50625212 -29.67648405 25.54762994 -27.6875 23.9375 C-24.03238973 20.88610633 -20.49459026 17.73288086 -17 14.5 C-4.51361386 3.00907591 -4.51361386 3.00907591 0 0 Z " fill="#FBBD00" transform="translate(609,647)"/>
<path d="M0 0 C0.99 5.61 1.98 11.22 3 17 C-16.54545455 22 -16.54545455 22 -24 22 C-23.34 26.62 -22.68 31.24 -22 36 C-20.30230469 35.6390625 -18.60460937 35.278125 -16.85546875 34.90625 C-14.63284578 34.4373422 -12.4101877 33.96860083 -10.1875 33.5 C-9.06794922 33.26152344 -7.94839844 33.02304687 -6.79492188 32.77734375 C-5.72177734 32.55175781 -4.64863281 32.32617188 -3.54296875 32.09375 C-2.55321045 31.88427734 -1.56345215 31.67480469 -0.54370117 31.45898438 C2 31 2 31 5 31 C7.42811925 36.82748619 7.61727907 42.7757491 8 49 C4.62678224 49.67590188 1.25117758 50.33905518 -2.125 51 C-3.07632813 51.19078125 -4.02765625 51.3815625 -5.0078125 51.578125 C-9.73638116 52.49756891 -14.15562735 53.2609763 -19 53 C-18.855625 53.60328125 -18.71125 54.2065625 -18.5625 54.828125 C-18.376875 55.62734375 -18.19125 56.4265625 -18 57.25 C-17.814375 58.03890625 -17.62875 58.8278125 -17.4375 59.640625 C-17 62 -17 62 -17 66 C-7.43 64.35 2.14 62.7 12 61 C13.36038766 65.7613568 14.27360466 69.19366296 14.625 73.9375 C14.69976562 74.89527344 14.77453125 75.85304688 14.8515625 76.83984375 C14.90054688 77.55269531 14.94953125 78.26554688 15 79 C10.07588706 79.98589797 5.15033776 80.96416549 0.22338867 81.93579102 C-1.44791195 82.26644691 -3.11882233 82.59908238 -4.78930664 82.93383789 C-13.83483952 84.74511041 -22.76467702 86.50633235 -32 87 C-32.07927734 86.45851318 -32.15855469 85.91702637 -32.24023438 85.35913086 C-34.03255077 73.22014822 -35.96306776 61.11166019 -38.046875 49.01953125 C-38.31697388 47.449506 -38.31697388 47.449506 -38.5925293 45.84776306 C-39.506978 40.5390748 -40.42816096 35.23165208 -41.35742188 29.92553711 C-41.70197551 27.93475948 -42.04638278 25.94395651 -42.390625 23.953125 C-42.55294617 23.0383992 -42.71526733 22.1236734 -42.88250732 21.18122864 C-43.64771622 16.72935375 -44.1919708 12.53833882 -44 8 C-38.37761657 6.85574226 -32.75423956 5.71654987 -27.12988281 4.58203125 C-25.21684086 4.19540086 -23.30407739 3.80738986 -21.39160156 3.41796875 C-18.64199791 2.85834018 -15.89142972 2.3036906 -13.140625 1.75 C-12.28631897 1.57500977 -11.43201294 1.40001953 -10.55181885 1.21972656 C-9.75129089 1.05956055 -8.95076294 0.89939453 -8.12597656 0.734375 C-7.42426331 0.59225586 -6.72255005 0.45013672 -5.99957275 0.30371094 C-4 0 -4 0 0 0 Z " fill="#FABC00" transform="translate(494,710)"/>
<path d="M0 0 C0.639375 0.33 1.27875 0.66 1.9375 1 C-2.11688066 15.0060423 -2.11688066 15.0060423 -6.83984375 18.203125 C-8.5507003 18.88312718 -10.30642412 19.4471613 -12.0625 20 C-14.15234231 21.08674994 -14.15234231 21.08674994 -15.0625 23 C-14.82772801 26.64541845 -14.82772801 26.64541845 -14.0625 30 C-8.31887457 30.30349408 -3.82559357 29.22234556 1.625 27.5 C11.81096239 24.49519312 21.13853989 23.01456416 30.9375 28 C36.34671047 32.27705014 39.77429999 38.51039996 41.9375 45 C42.79963365 55.20427038 41.49510499 62.56507408 35.3125 70.75 C30.55550108 75.82649885 25.22578781 78.66237901 18.28515625 79.375 C8.73649924 79.53266616 8.73649924 79.53266616 4.9375 77 C5.6538892 71.55544207 6.92345064 66.11703449 8.9375 61 C10.9375 60 10.9375 60 14.25 60.25 C18.03020287 60.31350521 18.03020287 60.31350521 20.875 57.9375 C23.44224031 54.28112744 23.49557665 52.384888 22.9375 48 C22.05685073 45.64630193 22.05685073 45.64630193 20.9375 44 C14.77240618 43.72072055 9.97365521 44.64072473 4.125 46.5 C-5.7039092 49.4066035 -14.6117233 50.96273662 -24.0625 46 C-29.78610944 42.61786715 -31.87506903 37.12848516 -33.65234375 30.94921875 C-35.36259576 22.8214497 -33.11283039 16.94921156 -28.8828125 10.0859375 C-22.19947302 1.10890755 -10.69558181 -3.49243488 0 0 Z " fill="#FBBD00" transform="translate(668.0625,607)"/>
<path d="M0 0 C5.42457344 3.90646644 9.23491005 7.89375969 12 14 C12 15.32 12 16.64 12 18 C6.4373852 20.66038099 1.06732052 21.96232949 -5 23 C-5.5878125 21.576875 -5.5878125 21.576875 -6.1875 20.125 C-7.71587913 16.93922392 -7.71587913 16.93922392 -10.25 15.5625 C-14.9345495 14.60429669 -18.51454695 15.17090993 -22.6875 17.5 C-28.50757863 23.7919769 -29.61582106 30.36129383 -29.3203125 38.7734375 C-28.71184681 44.90261626 -27.88581594 50.11418406 -23.4375 54.5625 C-19.21858724 57.05057676 -15.87246458 57.51815388 -11 57 C-7.08044492 55.41710276 -4.41402306 53.5605173 -1 51 C3.29 54.63 7.58 58.26 12 62 C6.76824219 68.67049121 1.15368391 73.32916847 -7 76 C-15.61958186 76.83855661 -23.54548851 76.79016138 -31 72 C-31.78117187 71.50242187 -32.56234375 71.00484375 -33.3671875 70.4921875 C-40.72977768 65.30216492 -44.73203242 58.69387573 -47 50 C-49.28717002 35.97202388 -48.84186297 22.54110829 -41.3125 10.125 C-31.62977044 -3.14302237 -14.65545513 -9.27905911 0 0 Z " fill="#FABC00" transform="translate(419,721)"/>
<path d="M0 0 C0.495 0.99 0.495 0.99 1 2 C-0.03258895 4.62194924 -1.13168378 7.13113055 -2.33203125 9.67578125 C-2.68383957 10.43795456 -3.03564789 11.20012787 -3.39811707 11.98539734 C-4.52886741 14.43126376 -5.6703414 16.87194299 -6.8125 19.3125 C-7.94166683 21.7433486 -9.0686334 24.17520371 -10.19474792 26.60746765 C-10.89698981 28.12220729 -11.60141563 29.63593688 -12.30830383 31.14851379 C-13.21536867 33.09467749 -14.10987575 35.04604488 -15 37 C-15.4021875 37.87052002 -15.804375 38.74104004 -16.21875 39.63793945 C-17.16105945 42.48695317 -17.2426751 44.86825389 -17.23046875 47.8671875 C-17.22917969 48.99318359 -17.22789062 50.11917969 -17.2265625 51.27929688 C-17.20722656 53.05916992 -17.20722656 53.05916992 -17.1875 54.875 C-17.18105469 56.08994141 -17.17460938 57.30488281 -17.16796875 58.55664062 C-17.1040624 66.02968961 -16.83403448 73.43042502 -16.22265625 80.87890625 C-15.88674416 85.58756871 -15.91173014 90.28246633 -16 95 C-18.9224566 92.34693668 -20.96660248 89.26644146 -23.16796875 86.00390625 C-23.56647537 85.41512192 -23.96498199 84.82633759 -24.37556458 84.2197113 C-25.649325 82.33605679 -26.91843188 80.44931813 -28.1875 78.5625 C-29.02118856 77.32857612 -29.85517033 76.0948503 -30.68945312 74.86132812 C-31.09874054 74.25471344 -31.50802795 73.64809875 -31.92971802 73.02310181 C-32.75668686 71.79979935 -33.58651507 70.5784251 -34.41915894 69.35897827 C-36.36867015 66.49072911 -38.21850101 63.62754896 -39.97509766 60.63330078 C-44.75924778 52.64487116 -49.46714998 49.28619439 -58 45.75 C-60.21793166 44.76150134 -62.43537925 43.77191586 -64.65234375 42.78125 C-65.72983887 42.31332031 -66.80733398 41.84539062 -67.91748047 41.36328125 C-72.20622245 39.46653365 -76.38637488 37.380795 -80.5625 35.25 C-81.83448729 34.60908094 -83.10660474 33.96842006 -84.37890625 33.328125 C-85.24386719 32.88984375 -86.10882812 32.4515625 -87 32 C-87 31.67 -87 31.34 -87 31 C-85.23969525 30.71063484 -83.47919442 30.42243679 -81.71801758 30.13842773 C-80.07790039 29.873592 -78.43843357 29.6047044 -76.79956055 29.33227539 C-71.49016675 28.47332537 -66.19627377 27.7939785 -60.84375 27.26171875 C-46.89244575 25.79584393 -36.39433615 24.14319378 -25.19238281 15.58007812 C-20.50198221 12.19964687 -15.45708202 9.34292006 -10.5 6.375 C-8.48882198 5.15489994 -6.47834058 3.93365042 -4.46875 2.7109375 C-2.97924959 1.80715499 -1.4896999 0.90345365 0 0 Z " fill="#FABC00" transform="translate(670,132)"/>
<path d="M0 0 C4.13183935 1.51347655 7.84645117 3.53965151 11.62109375 5.7734375 C12.24347427 6.13845367 12.8658548 6.50346985 13.50709534 6.87954712 C14.8182793 7.64949783 16.12847926 8.42112643 17.43774414 9.19433594 C19.4255627 10.36795217 21.41659159 11.53595945 23.40820312 12.703125 C24.68769413 13.45539908 25.96699721 14.2079929 27.24609375 14.9609375 C27.83378036 15.3058725 28.42146698 15.6508075 29.02696228 16.00619507 C31.74117875 17.61157357 34.30074506 19.23002919 36.80859375 21.14819336 C41.0741148 23.62325281 44.97075247 24.08545963 49.81640625 24.66796875 C50.75048813 24.79311356 51.68457001 24.91825836 52.6469574 25.04719543 C55.61709103 25.44202493 58.58945457 25.81529716 61.5625 26.1875 C64.53832531 26.57527437 67.51355713 26.96737852 70.48875427 27.35993958 C72.33579912 27.60197219 74.18333097 27.84032466 76.03138733 28.07450867 C80.05594999 28.5871226 84.03513761 29.11977092 88 30 C84.42961205 33.0513958 80.36719965 34.64820059 76.078125 36.421875 C56.39400589 44.8889169 42.76120606 51.73440456 32.43017578 71.33984375 C30.29879868 75.30424882 27.78560555 78.97449884 25.25 82.6875 C24.86626221 83.28071045 24.48252441 83.8739209 24.0871582 84.48510742 C22.00543499 87.69377853 19.80779476 90.40089269 17 93 C16.90926399 84.28934256 16.88219306 75.63030476 17.5 66.9375 C17.58121094 65.63425781 17.66242188 64.33101563 17.74609375 62.98828125 C17.87444808 60.97213086 18.00379362 58.9557271 18.17626953 56.94287109 C19.14906214 45.09475599 16.54809219 36.94148455 11.20703125 26.42236328 C9.028338 22.04999387 7.05984429 17.58229538 5.0625 13.125 C4.67328369 12.27446045 4.28406738 11.4239209 3.88305664 10.54760742 C3.52074951 9.7507251 3.15844238 8.95384277 2.78515625 8.1328125 C2.46426025 7.43043457 2.14336426 6.72805664 1.81274414 6.00439453 C1.00832989 4.02054322 0.46542199 2.08693934 0 0 Z " fill="#FBBD00" transform="translate(171,133)"/>
<path d="M0 0 C0.495 0.99 0.495 0.99 1 2 C0.12350254 4.30946801 -0.81518995 6.49742891 -1.859375 8.73046875 C-2.16441956 9.39911453 -2.46946411 10.06776031 -2.78375244 10.75666809 C-3.76514462 12.90374081 -4.75727559 15.04564664 -5.75 17.1875 C-6.72600532 19.3125561 -7.69981782 21.43860683 -8.67340088 23.56477356 C-9.2803058 24.88800241 -9.88904086 26.210394 -10.49993896 27.53178406 C-11.3399764 29.35145206 -12.17010373 31.17568459 -13 33 C-13.83869629 34.7934082 -13.83869629 34.7934082 -14.69433594 36.62304688 C-18.39677097 46.19897833 -15.54212137 58.13813948 -14.5 68.1875 C-12.78300108 84.8715823 -12.78300108 84.8715823 -13 93 C-17.07466852 89.08349791 -20.64787648 84.90177165 -24.1875 80.5 C-24.75339844 79.80092529 -25.31929687 79.10185059 -25.90234375 78.3815918 C-30.3027326 72.923846 -34.57614898 67.37873278 -38.78125 61.76953125 C-42.69272659 56.88707191 -46.27729774 53.53810826 -51.97265625 50.87890625 C-53.12056641 50.33556641 -54.26847656 49.79222656 -55.45117188 49.23242188 C-56.64291016 48.68134766 -57.83464844 48.13027344 -59.0625 47.5625 C-61.4079627 46.46050895 -63.75301771 45.35764974 -66.09765625 44.25390625 C-67.23992676 43.71910645 -68.38219727 43.18430664 -69.55908203 42.63330078 C-74.7472339 40.17064036 -79.87732761 37.5956045 -85 35 C-81.98422561 31.98422561 -78.25732456 32.05416612 -74.1875 31.44921875 C-72.37101987 31.1599688 -70.55461604 30.87023937 -68.73828125 30.58007812 C-65.88032733 30.13289699 -63.02179837 29.69079807 -60.16162109 29.25805664 C-45.39486373 27.19226097 -45.39486373 27.19226097 -32 21 C-31.19981445 20.50894775 -30.39962891 20.01789551 -29.57519531 19.51196289 C-27.06267702 17.94445513 -24.59160012 16.32617916 -22.125 14.6875 C-21.26165039 14.1200708 -20.39830078 13.5526416 -19.50878906 12.96801758 C-17.00181062 11.3180356 -14.50002072 9.66049996 -12 8 C-11.31325195 7.54496094 -10.62650391 7.08992188 -9.91894531 6.62109375 C-6.60543891 4.42471236 -3.29837961 2.21903181 0 0 Z " fill="#FABC00" transform="translate(132,331)"/>
<path d="M0 0 C9.13819624 4.59005729 17.59638953 10.17575524 26.1328125 15.78125 C26.95257568 16.31331055 27.77233887 16.84537109 28.61694336 17.39355469 C30.1485585 18.4260337 31.64883599 19.50750314 33.10375977 20.64550781 C39.75000802 25.68497929 46.55281825 26.62209899 54.6875 27.75 C55.96044922 27.94464844 57.23339844 28.13929688 58.54492188 28.33984375 C63.69179465 29.11959367 68.84244863 29.856211 74.00634766 30.51367188 C75.26882324 30.67931641 76.53129883 30.84496094 77.83203125 31.015625 C78.97003174 31.15774414 80.10803223 31.29986328 81.28051758 31.44628906 C84 32 84 32 86 34 C84.57905029 34.68775513 84.57905029 34.68775513 83.12939453 35.3894043 C79.56934847 37.11271671 76.00971425 38.83687841 72.45019531 40.5612793 C70.91807862 41.30336816 69.38585464 42.04523555 67.85351562 42.78686523 C67.11294922 43.14530518 66.37238281 43.50374512 65.609375 43.87304688 C64.51020248 44.40487579 64.51020248 44.40487579 63.38882446 44.94744873 C61.92906558 45.65570911 60.47054024 46.36651768 59.01327515 47.07989502 C55.99349321 48.55794681 52.97753777 50.00998558 49.90478516 51.37597656 C43.97170424 54.06646935 40.724784 56.97499561 37.125 62.375 C36.11831285 63.79859465 35.10912727 65.22042532 34.09765625 66.640625 C33.59121582 67.36185547 33.08477539 68.08308594 32.56298828 68.82617188 C30.02206172 72.36013159 27.29861756 75.74128066 24.5625 79.125 C23.83667725 80.02871338 23.83667725 80.02871338 23.09619141 80.95068359 C21.73687946 82.63883847 20.36978097 84.32033416 19 86 C18.53062012 86.58104492 18.06124023 87.16208984 17.57763672 87.76074219 C16.4081424 89.19296418 15.2070216 90.59925889 14 92 C13.67 92 13.34 92 13 92 C13.46744803 79.81411338 14.59105859 67.76718987 16.0715332 55.66113281 C17.39501583 44.27232151 15.48318559 37.16248154 10.75 26.8125 C9.78527034 24.67371255 8.82172488 22.53439054 7.859375 20.39453125 C7.38693359 19.34475098 6.91449219 18.2949707 6.42773438 17.21337891 C0 2.74658003 0 2.74658003 0 0 Z " fill="#FBBD00" transform="translate(710,332)"/>
<path d="M0 0 C4.9383268 0.3367041 7.39988293 1.67031426 11 5 C17.5147914 15.29425277 20.44964806 25.82607382 19 38 C17.02154862 42.18518562 15.35308059 43.68104755 10.97265625 45.30859375 C10.32167969 45.53675781 9.67070313 45.76492188 9 46 C8.29746094 46.27972656 7.59492187 46.55945313 6.87109375 46.84765625 C3.79075939 48.06730982 1.34097757 49 -2 49 C-2.268125 48.05125 -2.53625 47.1025 -2.8125 46.125 C-5.72630406 35.96163111 -8.97107225 25.93642619 -12.40820312 15.9375 C-12.74400391 14.95007813 -13.07980469 13.96265625 -13.42578125 12.9453125 C-13.72911377 12.06375488 -14.03244629 11.18219727 -14.3449707 10.27392578 C-15 8 -15 8 -15 5 C-14.00097656 4.72285156 -13.00195312 4.44570313 -11.97265625 4.16015625 C-10.66922209 3.79444451 -9.36583931 3.42854962 -8.0625 3.0625 C-7.40314453 2.88009766 -6.74378906 2.69769531 -6.06445312 2.50976562 C-2.76178827 1.77403899 -2.76178827 1.77403899 0 0 Z " fill="#030200" transform="translate(553,709)"/>
<path d="M0 0 C4.33115633 0.75251751 8.45631478 2.00715016 12.625 3.375 C13.29273438 3.58382812 13.96046875 3.79265625 14.6484375 4.0078125 C20.9656624 6.07986227 20.9656624 6.07986227 23 9 C23.41532402 12.90404583 23.1988146 15.7017781 21 19 C15.92353694 21.53823153 10.62312011 20.06856323 5.48339844 18.40478516 C-2.63788305 15.63644797 -2.63788305 15.63644797 -4.03125 13.1875 C-3.98902395 10.2316768 -3.14139254 7.99627193 -2.0625 5.25 C-1.49208984 3.77273438 -1.49208984 3.77273438 -0.91015625 2.265625 C-0.60980469 1.51796875 -0.30945313 0.7703125 0 0 Z " fill="#060400" transform="translate(320,722)"/>
</svg>
